# xmcd
#
# Track frame offsets:
#	150
#	12425
#	24138
#	41000
#	55247
#	66508
#	79587
#	92357
#	104876
#	121226
#	131794
#	147528
#
# Disc length: 2219 seconds
# Revision: 0
# Processed by: cddbd v1.5.2PL0 Copyright (c) Steve Scherf et al.
# Submitted via: dBpowerAMP V12.0
#
DISCID=a608a90c
DTITLE=Various Artist - LonesomeAndThenSome~AClassic50thCelebration
DYEAR=1995
DGENRE=Folk
TTITLE0=LarrySparks,Lebanon,OH&BillMonroe - WillYouBeSatisfiedThatWay
TTITLE1=LarrySparks,Lebanon,OH - JourneyToTheLight
TTITLE2=LarrySparks,Lebanon,OH - BitterWeeds
TTITLE3=LarrySparks,Lebanon,OH,withAllisonKrauss&JudyMarshall - GoingUpHomeToLiveInGreenPastures
TTITLE4=LarrySparks,Lebanon,OH,withRalphStanley - LovingYouTooWell
TTITLE5=LarrySparks,Lebanon,OH - Savior'sPreciousBlood
TTITLE6=LarrySparks,Lebanon,OH,withBobbyOsborne - LetterFromMyDarling
TTITLE7=LarrySparks,Lebanon,OH - WePrayed
TTITLE8=LarrySparks,Lebanon,OH,withCurlySeckler - DimLights,ThickSmoke
TTITLE9=LarrySparks,Lebanon,OH - InThoseDays
TTITLE10=LarrySparks,Lebanon,OH,withJessieMcReynolds&CurlySeckler - I'mGonnaSing,Sing,Sing
TTITLE11=LarrySparks,Lebanon,OH - InThePines[live]
EXTD=
EXTT0=
EXTT1=
EXTT2=
EXTT3=
EXTT4=
EXTT5=
EXTT6=
EXTT7=
EXTT8=
EXTT9=
EXTT10=
EXTT11=
PLAYORDER=
